<?xml version="1.0" standalone="no"?><!DOCTYPE svg PUBLIC "-//W3C//DTD SVG 1.1//EN" "http://www.w3.org/Graphics/SVG/1.1/DTD/svg11.dtd"><svg t="1529944920878" class="icon" style="" viewBox="0 0 1024 1024" version="1.1" xmlns="http://www.w3.org/2000/svg" p-id="2123" xmlns:xlink="http://www.w3.org/1999/xlink" width="128" height="128"><defs><style type="text/css"></style></defs><path d="M485.883749 0h434.802022c28.194044 0 51.081726 22.695886 51.081726 50.698133V595.846913a20.777923 20.777923 0 0 0-20.202535 5.306362l-17.58132 17.517387a29.600549 29.600549 0 0 1-32.861085 4.858838l-34.523319-14.19292a29.92021 29.92021 0 0 1-19.75501-26.85147v-24.741712a20.777923 20.777923 0 0 0-20.650059-20.65006h-41.236187a20.777923 20.777923 0 0 0-20.713991 20.65006v24.805644a29.856278 29.856278 0 0 1-19.755011 26.787538l-34.523319 14.19292a29.472685 29.472685 0 0 1-32.797153-4.858838l-17.645251-17.517387a20.713991 20.713991 0 0 0-29.216957 0l-29.216957 29.216957a20.650059 20.650059 0 0 0 0 29.216957l17.517387 17.581319c8.119373 8.055441 10.293064 22.759818 4.92277 32.797153l-14.256852 34.587252a29.856278 29.856278 0 0 1-26.787538 19.75501h-24.805644a20.713991 20.713991 0 0 0-20.65006 20.650059v41.300119c0 11.379909 9.334083 20.650059 20.65006 20.650059h24.805644c11.379909 0 23.399138 8.95049 26.787538 19.75501l14.256852 34.523319a29.664481 29.664481 0 0 1-4.92277 32.925018l-17.517387 17.517387a20.777923 20.777923 0 0 0 0 29.280889l29.216957 29.216957c7.991509 7.991509 21.097584 7.991509 29.216957 0l17.581319-17.58132a29.408753 29.408753 0 0 1 32.733221-4.794905l34.651183 14.19292c9.014422 2.813011 16.622339 11.635637 18.987826 21.033652H50.889929A51.145658 51.145658 0 0 1 0 972.215022V50.698133C0 22.695886 22.887682 0 51.081726 0H485.883749zM126.777299 537.029406c0 13.681463 11.571705 25.572829 25.956421 25.572829h229.388275c13.87326 0 25.956421-11.507773 25.956422-25.572829 0-13.681463-11.635637-25.572829-25.956422-25.572829H152.73372a26.084285 26.084285 0 0 0-25.956421 25.572829z m0 204.582631c0 13.681463 11.379909 25.572829 25.508897 25.572829h179.137666c14.384716 0 25.508897-11.507773 25.508897-25.572829 0-13.681463-11.443841-25.572829-25.572829-25.572829H152.350128a25.317101 25.317101 0 0 0-25.572829 25.572829z m0-434.738091c0 13.681463 11.252045 25.572829 25.125304 25.572829H485.244428a25.636761 25.636761 0 0 0 0-51.145657H151.902603c-14.065056 0-25.125304 11.507773-25.125304 25.572828z"     p-id="2124"></path><path d="M1007.185865 786.875944c8.63083 0 15.72729 7.032528 15.72729 15.72729v31.518512c0 8.63083-7.032528 15.72729-15.72729 15.727289h-18.859961a22.82375 22.82375 0 0 0-20.458263 15.024037l-10.804521 26.340014a22.568021 22.568021 0 0 0 3.708061 24.99744l13.361803 13.425735a15.791222 15.791222 0 0 1 0 22.248362l-22.312293 22.248361a15.791222 15.791222 0 0 1-22.248362 0l-13.297871-13.425735a22.568021 22.568021 0 0 0-25.061372-3.580196l-26.340014 10.80452a22.82375 22.82375 0 0 0-15.087969 20.458263v18.796029a15.791222 15.791222 0 0 1-15.727289 15.72729h-31.45458a15.791222 15.791222 0 0 1-15.72729-15.72729v-18.859961a22.759818 22.759818 0 0 0-15.087969-20.394331l-26.340013-10.868453a22.440157 22.440157 0 0 0-24.933509 3.708061l-13.425735 13.425735a15.791222 15.791222 0 0 1-22.248361 0l-22.312293-22.312293a15.855154 15.855154 0 0 1 0-22.312294l13.425735-13.361803a22.631954 22.631954 0 0 0 3.70806-24.99744l-10.868452-26.340014a22.759818 22.759818 0 0 0-20.458263-15.024037h-18.859961a15.791222 15.791222 0 0 1-15.72729-15.791221v-31.45458c0-8.694762 7.032528-15.72729 15.72729-15.72729h18.923893a22.759818 22.759818 0 0 0 20.394331-15.024037l10.868452-26.403945a22.440157 22.440157 0 0 0-3.771992-24.933509l-13.297871-13.425735a15.72729 15.72729 0 0 1 0-22.312293l22.248361-22.248361a15.791222 15.791222 0 0 1 22.248361 0l13.425735 13.425735c6.073547 6.073547 17.261659 7.735781 24.933509 3.644128l26.340013-10.868452a22.759818 22.759818 0 0 0 15.087969-20.330399v-18.923893c0-8.63083 7.032528-15.72729 15.72729-15.72729h31.45458c8.63083 0 15.72729 7.032528 15.727289 15.72729v18.923893c0 8.63083 6.840732 17.837048 15.087969 20.394331l26.276082 10.868452c7.671849 4.027721 18.923893 2.365487 25.061372-3.70806l13.361803-13.425735a15.791222 15.791222 0 0 1 22.248362 0l22.312293 22.248361a15.791222 15.791222 0 0 1 0 22.312293l-13.425735 13.425735a22.504089 22.504089 0 0 0-3.644129 24.933509l10.868453 26.403945c2.557283 8.247237 11.699569 15.024037 20.394331 15.024037h18.859961z m-188.791409 110.091029a78.636449 78.636449 0 1 0 0-157.272898 78.636449 78.636449 0 0 0 0 157.272898z"     p-id="2125"></path></svg>