<?xml version="1.0" standalone="no"?><!DOCTYPE svg PUBLIC "-//W3C//DTD SVG 1.1//EN" "http://www.w3.org/Graphics/SVG/1.1/DTD/svg11.dtd"><svg t="1529945415123" class="icon" style="" viewBox="0 0 1024 1024" version="1.1" xmlns="http://www.w3.org/2000/svg" p-id="5798" xmlns:xlink="http://www.w3.org/1999/xlink" width="128" height="128"><defs><style type="text/css"></style></defs><path d="M271.619592 620.235624l480.761824 0 0-80.290923L271.619592 539.944701 271.619592 620.235624 271.619592 620.235624 271.619592 620.235624zM271.619592 418.744605l480.761824 0 0-80.323143L271.619592 338.421462 271.619592 418.744605 271.619592 418.744605 271.619592 418.744605zM752.381415 136.930443 752.381415 16.446233l-79.898243 0 0 121.201103L351.516828 137.647336 351.516828 16.446233l-79.898243 0 0 121.201103L71.202904 137.647336l0 886.352664 881.594192 0L952.797096 136.930443 752.381415 136.930443 752.381415 136.930443 752.381415 136.930443zM872.897846 942.210853 151.819046 942.210853 151.819046 217.219352l120.549657 0 0 40.162075 79.866023 0L352.234727 217.219352l320.247439 0 0 40.162075 79.898243 0L752.380408 217.219352 872.897846 217.219352 872.897846 942.210853 872.897846 942.210853 872.897846 942.210853zM271.619592 821.758862l280.313924 0L551.933515 741.436726 271.619592 741.436726 271.619592 821.758862 271.619592 821.758862 271.619592 821.758862z" p-id="5799"></path></svg>