<?xml version="1.0" standalone="no"?><!DOCTYPE svg PUBLIC "-//W3C//DTD SVG 1.1//EN" "http://www.w3.org/Graphics/SVG/1.1/DTD/svg11.dtd"><svg t="1529944884655" class="icon" style="" viewBox="0 0 1024 1024" version="1.1" xmlns="http://www.w3.org/2000/svg" p-id="1912" xmlns:xlink="http://www.w3.org/1999/xlink" width="128" height="128"><defs><style type="text/css"></style></defs><path d="M208.9 993.56c-21 0-39-7.44-53.7-22.11s-22.1-32.73-22.1-53.69v-268a36.74 36.74 0 0 1 36.9-36.9 36.74 36.74 0 0 1 36.9 36.9v270H816v-270a36.9 36.9 0 1 1 73.8 0v268c0 21-7.43 39-22.1 53.69S835 993.56 814 993.56zM945.85 538.64a33.14 33.14 0 0 1-25.53-11.23L512.54 119.63l-408.79 407.7a32.85 32.85 0 0 1-25.6 11.31 36.74 36.74 0 0 1-36.9-36.91c0-10.34 3.69-19.07 11.3-26.68L485.86 41.74a36.63 36.63 0 0 1 26.68-11.3 32.85 32.85 0 0 1 25.54 11.24L972.5 475a38 38 0 0 1 10.25 26.17c0 9.88-3.63 18.68-10.79 26.18a34.44 34.44 0 0 1-26.11 11.29z"      p-id="1913"></path><path d="M306.6 721.34h134.34v134.14H306.6zM306.6 514.14h134.34v134.14H306.6zM514.11 721.34h134.34v134.14H514.11z"      p-id="1914"></path></svg>