<?xml version="1.0" standalone="no"?><!DOCTYPE svg PUBLIC "-//W3C//DTD SVG 1.1//EN" "http://www.w3.org/Graphics/SVG/1.1/DTD/svg11.dtd"><svg t="1529945147758" class="icon" style="" viewBox="0 0 1413 1024" version="1.1" xmlns="http://www.w3.org/2000/svg" p-id="4329" xmlns:xlink="http://www.w3.org/1999/xlink" width="176.625" height="128"><defs><style type="text/css"></style></defs><path d="M1320.606897 349.572414C1313.544828 331.917241 1292.358621 317.793103 1271.172414 317.793103l-176.551724 0L1094.62069 211.862069c0-21.186207-14.124138-35.310345-35.310345-35.310345L529.655172 176.551724c-21.186207 0-35.310345 14.124138-35.310345 35.310345l0 0c0 21.186207 14.124138 35.310345 35.310345 35.310345l494.344828 0 0 600.275862L632.055172 847.448276c-14.124138-60.027586-70.62069-105.931034-137.710345-105.931034s-120.055172 45.903448-137.710345 105.931034L282.482759 847.448276l0-317.793103c0-21.186207-14.124138-35.310345-35.310345-35.310345l0 0c-21.186207 0-35.310345 14.124138-35.310345 35.310345l0 353.103448c0 21.186207 14.124138 35.310345 35.310345 35.310345l109.462069 0c14.124138 60.027586 70.62069 105.931034 137.710345 105.931034s120.055172-45.903448 137.710345-105.931034l399.006897 0c14.124138 60.027586 70.62069 105.931034 137.710345 105.931034s120.055172-45.903448 137.710345-105.931034L1377.103448 918.068966c21.186207 0 35.310345-14.124138 35.310345-35.310345l0-229.517241C1412.413793 564.965517 1320.606897 349.572414 1320.606897 349.572414zM494.344828 953.37931c-38.841379 0-70.62069-31.77931-70.62069-70.62069s31.77931-70.62069 70.62069-70.62069 70.62069 31.77931 70.62069 70.62069S533.186207 953.37931 494.344828 953.37931zM1165.241379 953.37931c-38.841379 0-70.62069-31.77931-70.62069-70.62069s31.77931-70.62069 70.62069-70.62069 70.62069 31.77931 70.62069 70.62069S1204.082759 953.37931 1165.241379 953.37931zM1341.793103 847.448276l-38.841379 0c-14.124138-60.027586-70.62069-105.931034-137.710345-105.931034-24.717241 0-49.434483 7.062069-70.62069 17.655172L1094.62069 388.413793l158.896552 0c0 0 24.717241 17.655172 28.248276 35.310345l-63.558621 0c-21.186207 0-35.310345 14.124138-35.310345 35.310345l0 141.241379c0 21.186207 14.124138 35.310345 35.310345 35.310345L1341.793103 635.586207C1341.793103 635.586207 1341.793103 847.448276 1341.793103 847.448276z" p-id="4330"></path><path d="M0 35.310345c0-21.186207 17.655172-35.310345 35.310345-35.310345l353.103448 0c21.186207 0 35.310345 14.124138 35.310345 35.310345 0 21.186207-17.655172 35.310345-35.310345 35.310345L35.310345 70.62069C14.124138 70.62069 0 56.496552 0 35.310345z" p-id="4331"></path><path d="M105.931034 211.862069c0-21.186207 14.124138-35.310345 35.310345-35.310345l247.172414 0c21.186207 0 35.310345 14.124138 35.310345 35.310345 0 21.186207-14.124138 35.310345-35.310345 35.310345L141.241379 247.172414C120.055172 247.172414 105.931034 233.048276 105.931034 211.862069z" p-id="4332"></path><path d="M211.862069 388.413793c0-21.186207 17.655172-35.310345 35.310345-35.310345l141.241379 0c17.655172 0 35.310345 14.124138 35.310345 35.310345 0 21.186207-17.655172 35.310345-35.310345 35.310345L247.172414 423.724138C225.986207 423.724138 211.862069 409.6 211.862069 388.413793z" p-id="4333"></path></svg>