<?xml version="1.0" standalone="no"?><!DOCTYPE svg PUBLIC "-//W3C//DTD SVG 1.1//EN" "http://www.w3.org/Graphics/SVG/1.1/DTD/svg11.dtd"><svg t="1541524347244" class="icon" style="" viewBox="0 0 1024 1024" version="1.1" xmlns="http://www.w3.org/2000/svg" p-id="2050" xmlns:xlink="http://www.w3.org/1999/xlink" width="128" height="128"><defs><style type="text/css"></style></defs><path d="M726.038306 354.937848l-357.25666 0c-9.315156 0-16.944927 7.592932-16.944927 16.908088 0 9.350972 7.611352 16.944927 16.944927 16.944927l357.25666 0c9.332553 0 16.926508-7.593955 16.926508-16.944927C742.964814 362.531803 735.370859 354.937848 726.038306 354.937848zM726.038306 467.73382l-357.25666 0c-9.315156 0-16.944927 7.612375-16.944927 16.945951s7.611352 16.909112 16.944927 16.909112l357.25666 0c9.332553 0 16.926508-7.575536 16.926508-16.909112S735.370859 467.73382 726.038306 467.73382zM726.038306 580.096934l-357.25666 0c-9.315156 0-16.944927 7.521301-16.944927 16.909112 0 9.332553 7.611352 16.925485 16.944927 16.925485l357.25666 0c9.332553 0 16.926508-7.592932 16.926508-16.925485C742.964814 587.636654 735.370859 580.096934 726.038306 580.096934zM297.340547 580.096934l-20.678972 0c-9.350972 0-16.889669 7.521301-16.889669 16.909112 0 9.332553 7.538697 16.925485 16.889669 16.925485l20.678972 0c9.369392 0 16.944927-7.592932 16.944927-16.925485C314.285474 587.636654 306.710962 580.096934 297.340547 580.096934zM726.038306 692.476421l-357.25666 0c-9.315156 0-16.944927 7.55814-16.944927 16.908088 0 9.333576 7.611352 16.909112 16.944927 16.909112l357.25666 0c9.332553 0 16.926508-7.575536 16.926508-16.909112C742.964814 699.997722 735.370859 692.476421 726.038306 692.476421zM297.340547 692.476421l-20.678972 0c-9.350972 0-16.889669 7.55814-16.889669 16.908088 0 9.333576 7.538697 16.909112 16.889669 16.909112l20.678972 0c9.369392 0 16.944927-7.575536 16.944927-16.909112C314.285474 699.997722 306.710962 692.476421 297.340547 692.476421zM297.340547 467.2631l-20.678972 0c-9.350972 0-16.889669 7.593955-16.889669 16.927531 0 9.333576 7.538697 16.927531 16.889669 16.927531l20.678972 0c9.369392 0 16.944927-7.593955 16.944927-16.927531C314.285474 474.857055 306.710962 467.2631 297.340547 467.2631zM297.340547 354.484523l-20.678972 0c-9.350972 0-16.889669 7.557116-16.889669 16.909112 0 9.350972 7.538697 16.908088 16.889669 16.908088l20.678972 0c9.369392 0 16.944927-7.557116 16.944927-16.908088C314.285474 362.024244 306.710962 354.484523 297.340547 354.484523zM844.454276 85.105307 178.908204 85.105307c-27.493168 0-49.856501 22.381753-49.856501 49.892317l0 752.009306c0 27.511587 22.381753 49.873897 49.856501 49.873897l665.546072 0c27.474748 0 49.855478-22.363334 49.855478-49.873897L894.309754 134.998647C894.308731 107.48706 871.928001 85.105307 844.454276 85.105307zM858.534969 887.007953c0 7.756661-6.306636 14.063297-14.063297 14.063297L178.908204 901.07125c-7.77508 0-14.063297-6.325056-14.063297-14.063297L164.844907 134.998647c0-7.77508 6.306636-14.063297 14.063297-14.063297l665.546072 0c7.77508 0 14.063297 6.306636 14.063297 14.063297l0 752.009306L858.534969 887.007953zM424.256098 244.025783l171.117262 0c12.939707 0 23.469528-10.565636 23.469528-23.523763 0-12.958126-10.529821-23.505343-23.469528-23.505343L424.256098 196.996676c-12.976546 0-23.469528 10.54824-23.469528 23.505343C400.786571 233.460146 411.279552 244.025783 424.256098 244.025783z" p-id="2051"></path></svg>