<?xml version="1.0" standalone="no"?><!DOCTYPE svg PUBLIC "-//W3C//DTD SVG 1.1//EN" "http://www.w3.org/Graphics/SVG/1.1/DTD/svg11.dtd"><svg t="1529945397101" class="icon" style="" viewBox="0 0 1024 1024" version="1.1" xmlns="http://www.w3.org/2000/svg" p-id="5399" xmlns:xlink="http://www.w3.org/1999/xlink" width="128" height="128"><defs><style type="text/css"></style></defs><path d="M528.516129 594.580645 528.516129 726.709677 198.193548 726.709677C198.193548 726.709677 196.508903 683.932903 198.193548 627.612903 199.878194 571.292903 330.322581 528.516129 330.322581 528.516129 330.322581 528.516129 358.532129 528.08671 391.663484 527.987613 320.941419 525.113806 264.258065 460.139355 264.258065 379.870968 264.258065 297.785806 323.418839 231.225806 396.387097 231.225806 469.355355 231.225806 528.516129 297.785806 528.516129 379.870968 528.516129 460.07329 471.964903 524.948645 401.341935 527.954581 422.449548 527.921548 444.680258 528.053677 462.451613 528.516129 511.537548 529.771355 528.516129 594.580645 528.516129 594.580645ZM1001.901419 660.645161 932.005161 660.645161C948.488258 614.069677 957.935484 564.190968 957.935484 512 957.935484 265.711484 758.288516 66.064516 512 66.064516 265.711484 66.064516 66.064516 265.711484 66.064516 512 66.064516 758.288516 265.711484 957.935484 512 957.935484 552.068129 957.935484 590.682839 952.154839 627.612903 942.245161L627.612903 1010.39071C590.418581 1019.012129 551.836903 1024 512 1024 229.243871 1024 0 794.756129 0 512 0 229.210839 229.243871 0 512 0 794.756129 0 1024 229.210839 1024 512 1024 563.728516 1016.171355 613.574194 1001.901419 660.645161ZM561.548387 528.516129 561.548387 495.483871 693.677419 495.483871 693.677419 528.516129 561.548387 528.516129ZM561.548387 297.290323 858.83871 297.290323 858.83871 330.322581 561.548387 330.322581 561.548387 297.290323ZM858.83871 429.419355 561.548387 429.419355 561.548387 396.387097 858.83871 396.387097 858.83871 429.419355ZM809.290323 660.645161C909.642323 660.645161 990.967742 741.970581 990.967742 842.322581 990.967742 942.674581 909.642323 1024 809.290323 1024 708.938323 1024 627.612903 942.674581 627.612903 842.322581 627.612903 741.970581 708.938323 660.645161 809.290323 660.645161ZM778.273032 950.272 801.626839 926.885161 796.473806 921.765161 927.314581 805.293419 905.348129 780.618323 773.086968 898.378323 708.178581 833.469935 684.824774 856.823742 778.273032 950.272Z" p-id="5400"></path></svg>