<?xml version="1.0" standalone="no"?><!DOCTYPE svg PUBLIC "-//W3C//DTD SVG 1.1//EN" "http://www.w3.org/Graphics/SVG/1.1/DTD/svg11.dtd"><svg t="1529943757902" class="icon" style="" viewBox="0 0 1024 1024" version="1.1" xmlns="http://www.w3.org/2000/svg" p-id="1474" xmlns:xlink="http://www.w3.org/1999/xlink" width="128" height="128"><defs><style type="text/css"></style></defs><path d="M446.704941 63.006118l59.934118 6.023529-23.973647 239.736471-59.934118-6.02353zM638.494118 307.2l-36.141177-246.964706-60.235294 12.047059 36.141177 246.964706zM415.623529 78.305882l-54.211764-24.094117-96.376471 246.964706 48.188235 24.094117zM789.082353 301.176471l-96.376471-246.964706-54.211764 24.094117 96.37647 246.964706zM915.576471 608.376471l-18.070589-18.070589 48.188236-30.117647-42.164706-108.423529-120.470588 12.047059c-6.023529-6.023529-6.023529-12.047059-12.047059-18.070589-12.047059-12.047059-18.070588-24.094118-24.094118-30.117647-24.094118-36.141176-30.117647-42.164706-54.211765-42.164705h-355.388235c-18.070588 0-24.094118 6.023529-54.211765 42.164705-6.023529 6.023529-12.047059 18.070588-24.094117 30.117647 0 0-6.023529 6.023529-12.047059 18.070589l-114.447059-12.047059-48.188235 108.423529 30.117647 18.070589c-6.023529 6.023529-12.047059 24.094118-18.070588 36.141176l-12.047059 24.094118-6.02353 12.047058c-6.023529 12.047059-6.023529 18.070588-6.023529 36.141177v222.870588c0 36.141176 18.070588 60.235294 54.211765 60.235294h114.447058c36.141176 0 54.211765-24.094118 54.211765-54.211764v-18.070589h421.647059v18.070589c0 30.117647 18.070588 54.211765 54.211765 54.211764h114.447059c36.141176 0 54.211765-24.094118 54.211764-60.235294v-102.4-42.164706-60.235294-6.023529c0-42.164706 0-54.211765-12.047059-66.258824 0-6.023529-6.023529-12.047059-12.047058-24.094117z m-36.141177-78.305883l-30.117647 18.070588-12.047059-6.023529 6.02353 6.023529-6.02353-12.047058c0-6.023529-12.047059-12.047059-12.047059-18.070589l42.164706-6.023529 12.047059 18.070588z m-530.070588-96.37647h337.317647l78.305882 102.4h-493.929411l78.305882-102.4z m-174.682353 84.329411h36.141176c-6.023529 6.023529-6.023529 12.047059-12.047058 18.070589l-18.070589 6.023529-18.070588-12.047059 12.047059-12.047059z m662.588235 391.529412h-54.211764v-72.282353h-542.117648v72.282353H138.541176v-222.870588-12.047059l6.02353-12.047059 12.047059-18.070588s6.023529-18.070588 12.047059-30.117647l42.164705-18.070588h614.4l24.094118 18.070588c6.023529 6.023529 18.070588 18.070588 18.070588 24.094118 6.023529 12.047059 12.047059 18.070588 18.070589 30.117647v240.941176h-48.188236z"   p-id="1475"></path><path d="M240.941176 692.705882h132.517648v60.235294h-132.517648zM650.541176 692.705882h132.517648v60.235294h-132.517648z"   p-id="1476"></path></svg>