<?xml version="1.0" standalone="no"?><!DOCTYPE svg PUBLIC "-//W3C//DTD SVG 1.1//EN" "http://www.w3.org/Graphics/SVG/1.1/DTD/svg11.dtd"><svg t="1527608523048" class="icon" style="" viewBox="0 0 1024 1024" version="1.1" xmlns="http://www.w3.org/2000/svg" p-id="3844" xmlns:xlink="http://www.w3.org/1999/xlink" width="64" height="64"><defs><style type="text/css"></style></defs><path d="M909 865H115a50 50 0 0 1-50-50V115a50 50 0 0 1 50-50h794a50 50 0 0 1 50 50v700a50 50 0 0 1-50 50z m-10-725a15 15 0 0 0-15-15H140a15 15 0 0 0-15 15v650a15 15 0 0 0 15 15h744a15 15 0 0 0 15-15V140zM757.74 557.167L628 427.426 499.26 556.167a29.922 29.922 0 0 1-24.827 8.542 29.879 29.879 0 0 1-22.381-8.731l-82.3-82.3-63.965 63.962a30 30 0 1 1-42.427-42.427l84.853-84.853a31.8 31.8 0 0 1 43.735 0.662l83.8 83.8L606.74 363.833a30 30 0 0 1 42.427 0c0.02 0.021 0.037 0.044 0.058 0.065 0.344 0.314 0.7 0.6 1.035 0.935L800.167 514.74a30 30 0 1 1-42.427 42.427zM142 899h740a30 30 0 0 1 0 60H142a30 30 0 0 1 0-60z"  p-id="3845"></path></svg>
