<?xml version="1.0" standalone="no"?><!DOCTYPE svg PUBLIC "-//W3C//DTD SVG 1.1//EN" "http://www.w3.org/Graphics/SVG/1.1/DTD/svg11.dtd"><svg t="1541755715903" class="icon" style="" viewBox="0 0 1024 1024" version="1.1" xmlns="http://www.w3.org/2000/svg" p-id="1279" xmlns:xlink="http://www.w3.org/1999/xlink" width="64" height="64"><defs><style type="text/css"></style></defs><path d="M128 96h768a64 64 0 0 1 64 64v128a64 64 0 0 1-64 64H128a64 64 0 0 1-64-64V160a64 64 0 0 1 64-64z m32 64a32 32 0 0 0-32 32v64a32 32 0 0 0 32 32h704a32 32 0 0 0 32-32V192a32 32 0 0 0-32-32H160z m-32 224h768a64 64 0 0 1 64 64v128a64 64 0 0 1-64 64H128a64 64 0 0 1-64-64v-128a64 64 0 0 1 64-64z m32 64a32 32 0 0 0-32 32v64a32 32 0 0 0 32 32h704a32 32 0 0 0 32-32v-64a32 32 0 0 0-32-32H160z m608 32h32a32 32 0 0 1 0 64h-32a32 32 0 0 1 0-64zM128 672h768a64 64 0 0 1 64 64v128a64 64 0 0 1-64 64H128a64 64 0 0 1-64-64v-128a64 64 0 0 1 64-64z m32 64a32 32 0 0 0-32 32v64a32 32 0 0 0 32 32h704a32 32 0 0 0 32-32v-64a32 32 0 0 0-32-32H160z m608 32h32a32 32 0 0 1 0 64h-32a32 32 0 0 1 0-64z m0-576h32a32 32 0 0 1 0 64h-32a32 32 0 0 1 0-64z"  p-id="1280"></path></svg>