<?xml version="1.0" standalone="no"?><!DOCTYPE svg PUBLIC "-//W3C//DTD SVG 1.1//EN" "http://www.w3.org/Graphics/SVG/1.1/DTD/svg11.dtd"><svg t="1529945439716" class="icon" style="" viewBox="0 0 1024 1024" version="1.1" xmlns="http://www.w3.org/2000/svg" p-id="6494" xmlns:xlink="http://www.w3.org/1999/xlink" width="128" height="128"><defs><style type="text/css"></style></defs><path d="M510.915765 500.796235c124.747294 0 225.882353-101.135059 225.882353-225.882353s-101.135059-225.882353-225.882353-225.882353c-124.747294 0-225.882353 101.135059-225.882353 225.882353S386.168471 500.796235 510.915765 500.796235zM722.070588 463.088941c-41.863529 51.471059-96.436706 87.913412-157.575529 102.249412L512 722.823529l-51.772235-155.316706c-63.548235-11.866353-120.591059-47.164235-164.472471-98.846118C243.561412 518.083765 210.823529 587.836235 210.823529 665.389176l0 60.235294c0 116.434824 94.388706 210.823529 210.823529 210.823529l180.705882 0c116.434824 0 210.823529-94.388706 210.823529-210.823529l0-60.235294C813.176471 584.854588 777.848471 512.722824 722.070588 463.088941z" p-id="6495"></path></svg>